<?xml version="1.0" encoding="UTF-8" standalone="no"?>
<svg
   xmlns:dc="http://purl.org/dc/elements/1.1/"
   xmlns:cc="http://creativecommons.org/ns#"
   xmlns:rdf="http://www.w3.org/1999/02/22-rdf-syntax-ns#"
   xmlns:svg="http://www.w3.org/2000/svg"
   xmlns="http://www.w3.org/2000/svg"
   xmlns:sodipodi="http://sodipodi.sourceforge.net/DTD/sodipodi-0.dtd"
   xmlns:inkscape="http://www.inkscape.org/namespaces/inkscape"
   height="16"
   viewBox="0 0 16 16"
   width="16"
   version="1.1"
   id="svg4"
   sodipodi:docname="icon_oper_folder.svg"
   inkscape:version="0.92.3 (2405546, 2018-03-11)">
  <metadata
     id="metadata10">
    <rdf:RDF>
      <cc:Work
         rdf:about="">
        <dc:format>image/svg+xml</dc:format>
        <dc:type
           rdf:resource="http://purl.org/dc/dcmitype/StillImage" />
      </cc:Work>
    </rdf:RDF>
  </metadata>
  <defs
     id="defs8" />
  <sodipodi:namedview
     pagecolor="#ffffff"
     bordercolor="#666666"
     borderopacity="1"
     objecttolerance="10"
     gridtolerance="10"
     guidetolerance="10"
     inkscape:pageopacity="0"
     inkscape:pageshadow="2"
     inkscape:window-width="1280"
     inkscape:window-height="1023"
     id="namedview6"
     showgrid="false"
     inkscape:zoom="1.84375"
     inkscape:cx="-17.062814"
     inkscape:cy="-7.1457844"
     inkscape:window-x="0"
     inkscape:window-y="0"
     inkscape:window-maximized="1"
     inkscape:current-layer="svg4" />
  <path
     d="m2 2a1 1 0 0 0 -1 1v2 6 2a1 1 0 0 0 1 1h12a1 1 0 0 0 1-1v-7a1 1 0 0 0 -1-1h-4a1 1 0 0 1 -1-1v-1a1 1 0 0 0 -1-1z"
     fill="#e0e0e0"
     id="path2"
     style="fill:#969696;fill-opacity:1" />
  <path
     id="path817"
     d="M 3.3065816,7.4642698 A 0.539182,1.0101304 84.832058 0 0 2.1864004,8.008914 L 1.9460379,9.0982024 1.2249505,12.366067 0.98458801,13.455356 A 0.539182,1.0101304 84.832058 0 0 1.8644068,14 H 13.864407 a 0.539182,1.0101304 84.832058 0 0 1.120181,-0.544644 L 15.825857,9.6428465 A 0.539182,1.0101304 84.832058 0 0 14.946038,9.0982024 h -4 A 0.539182,1.0101304 84.832058 0 1 10.066219,8.5535582 L 10.1864,8.008914 A 0.539182,1.0101304 84.832058 0 0 9.306582,7.4642698 Z"
     inkscape:connector-curvature="0"
     style="fill:#e0e0e0;fill-opacity:1;stroke:none;stroke-width:0.73800009;stroke-opacity:1" />
</svg>
