<?xml version="1.0" encoding="UTF-8" standalone="no"?>
<svg
   xmlns:dc="http://purl.org/dc/elements/1.1/"
   xmlns:cc="http://creativecommons.org/ns#"
   xmlns:rdf="http://www.w3.org/1999/02/22-rdf-syntax-ns#"
   xmlns:svg="http://www.w3.org/2000/svg"
   xmlns="http://www.w3.org/2000/svg"
   xmlns:sodipodi="http://sodipodi.sourceforge.net/DTD/sodipodi-0.dtd"
   xmlns:inkscape="http://www.inkscape.org/namespaces/inkscape"
   height="32"
   viewBox="0 0 32 32"
   width="32"
   version="1.1"
   id="svg4"
   sodipodi:docname="icon_oper_folder.svg"
   inkscape:version="0.92.3 (2405546, 2018-03-11)">
  <metadata
     id="metadata10">
    <rdf:RDF>
      <cc:Work
         rdf:about="">
        <dc:format>image/svg+xml</dc:format>
        <dc:type
           rdf:resource="http://purl.org/dc/dcmitype/StillImage" />
        <dc:title></dc:title>
      </cc:Work>
    </rdf:RDF>
  </metadata>
  <defs
     id="defs8" />
  <sodipodi:namedview
     pagecolor="#ffffff"
     bordercolor="#666666"
     borderopacity="1"
     objecttolerance="10"
     gridtolerance="10"
     guidetolerance="10"
     inkscape:pageopacity="0"
     inkscape:pageshadow="2"
     inkscape:window-width="1280"
     inkscape:window-height="1023"
     id="namedview6"
     showgrid="false"
     inkscape:zoom="10.429825"
     inkscape:cx="6.5172629"
     inkscape:cy="13.081567"
     inkscape:window-x="0"
     inkscape:window-y="0"
     inkscape:window-maximized="1"
     inkscape:current-layer="svg4" />
  <path
     d="m 3.6486039,3.9461736 a 2,2 0 0 0 -2,2 v 4 12.0000004 4 a 2,2 0 0 0 2,2 H 27.648603 a 2,2 0 0 0 2,-2 v -14 a 2,2 0 0 0 -2,-2.0000004 h -8 a 2,2 0 0 1 -1.999999,-2 v -2 a 2,2 0 0 0 -2,-2 z"
     id="path2"
     style="fill:#969696;fill-opacity:1;stroke-width:2"
     inkscape:connector-curvature="0" />
  <path
     id="path817"
     d="m 6.2617671,14.874714 a 1.078364,2.0202608 84.832058 0 0 -2.2403624,1.089288 l -0.480725,2.178576 -1.4421748,6.53573 -0.480725,2.178578 a 1.078364,2.0202608 84.832058 0 0 1.7596376,1.089288 H 27.377417 a 1.078364,2.0202608 84.832058 0 0 2.240362,-1.089288 l 1.682538,-7.62502 a 1.078364,2.0202608 84.832058 0 0 -1.759638,-1.089288 h -8 A 1.078364,2.0202608 84.832058 0 1 19.781041,17.05329 l 0.240362,-1.089288 a 1.078364,2.0202608 84.832058 0 0 -1.759636,-1.089288 z"
     inkscape:connector-curvature="0"
     style="fill:#e0e0e0;fill-opacity:1;stroke:none;stroke-width:1.47600019;stroke-opacity:1" />
</svg>
