<?xml version="1.0" encoding="UTF-8" standalone="no"?>
<svg
   xmlns:dc="http://purl.org/dc/elements/1.1/"
   xmlns:cc="http://creativecommons.org/ns#"
   xmlns:rdf="http://www.w3.org/1999/02/22-rdf-syntax-ns#"
   xmlns:svg="http://www.w3.org/2000/svg"
   xmlns="http://www.w3.org/2000/svg"
   xmlns:sodipodi="http://sodipodi.sourceforge.net/DTD/sodipodi-0.dtd"
   xmlns:inkscape="http://www.inkscape.org/namespaces/inkscape"
   height="32"
   viewBox="0 0 32 32"
   width="32"
   version="1.1"
   id="svg8"
   sodipodi:docname="loading_layer_icon.svg"
   inkscape:version="0.92.3 (2405546, 2018-03-11)">
  <metadata
     id="metadata14">
    <rdf:RDF>
      <cc:Work
         rdf:about="">
        <dc:format>image/svg+xml</dc:format>
        <dc:type
           rdf:resource="http://purl.org/dc/dcmitype/StillImage" />
        <dc:title></dc:title>
      </cc:Work>
    </rdf:RDF>
  </metadata>
  <defs
     id="defs12" />
  <sodipodi:namedview
     pagecolor="#ffffff"
     bordercolor="#666666"
     borderopacity="1"
     objecttolerance="10"
     gridtolerance="10"
     guidetolerance="10"
     inkscape:pageopacity="0"
     inkscape:pageshadow="2"
     inkscape:window-width="1280"
     inkscape:window-height="1023"
     id="namedview10"
     showgrid="false"
     inkscape:zoom="10.429825"
     inkscape:cx="2.2804611"
     inkscape:cy="21.707585"
     inkscape:window-x="0"
     inkscape:window-y="0"
     inkscape:window-maximized="1"
     inkscape:current-layer="g6" />
  <g
     transform="translate(0,-1020.4)"
     id="g6"
     style="fill:#e0e0e0">
    <path
       d="m 26.183676,1023.6555 -8.574311,-2.694 c -0.233628,0.7777 -0.500838,6.543 -0.939513,7.2261 l 4.593883,1.926 c 1.601929,-1.9778 4.456927,-3.9554 4.919941,-6.4581 z"
       id="path2"
       inkscape:connector-curvature="0"
       style="fill-opacity:0.99607999;stroke-width:2.17964911"
       sodipodi:nodetypes="ccccc" />
    <path
       d="m 13.985765,1021.4392 a 15.257544,15.257544 0 0 0 -6.943273,2.8778 l 4.704119,4.7041 a 8.7185967,8.7185967 0 0 1 2.239154,-0.9323 z m -10.0255149,5.9601 A 15.257544,15.257544 0 0 0 1.0781,1034.3425 h 6.6581744 a 8.7185967,8.7185967 0 0 1 0.928051,-2.2391 l -4.7041189,-4.7041 z m 24.4098909,0 -4.704119,4.7041 a 8.7185967,8.7185967 0 0 1 0.932324,2.2391 h 6.649673 a 15.257544,15.257544 0 0 0 -2.87779,-6.9432 z m -27.2892075,11.3025 a 15.257544,15.257544 0 0 0 2.8777909,6.9433 l 4.7041188,-4.7041 a 8.7185967,8.7185967 0 0 1 -0.9323013,-2.2392 H 1.0808682 Z m 23.5118755,0 a 8.7185967,8.7185967 0 0 1 -0.928051,2.2392 l 4.704119,4.7041 a 15.257544,15.257544 0 0 0 2.88215,-6.9433 h -6.658174 z m -12.847942,5.3214 -4.7041187,4.7041 a 15.257544,15.257544 0 0 0 6.9432727,2.8822 v -6.6582 a 8.7185967,8.7185967 0 0 1 -2.239154,-0.928 z m 8.837824,0 a 8.7185967,8.7185967 0 0 1 -2.239154,0.9324 v 6.6496 a 15.257544,15.257544 0 0 0 6.943273,-2.8778 l -4.704119,-4.7041 z"
       id="path4"
       inkscape:connector-curvature="0"
       style="fill-opacity:0.19607999;stroke-width:2.17964911" />
  </g>
</svg>
