<?xml version="1.0" encoding="UTF-8" standalone="no"?>
<svg
   xmlns:dc="http://purl.org/dc/elements/1.1/"
   xmlns:cc="http://creativecommons.org/ns#"
   xmlns:rdf="http://www.w3.org/1999/02/22-rdf-syntax-ns#"
   xmlns:svg="http://www.w3.org/2000/svg"
   xmlns="http://www.w3.org/2000/svg"
   xmlns:sodipodi="http://sodipodi.sourceforge.net/DTD/sodipodi-0.dtd"
   xmlns:inkscape="http://www.inkscape.org/namespaces/inkscape"
   height="16"
   viewBox="0 0 16 16"
   width="16"
   version="1.1"
   id="svg8"
   sodipodi:docname="small_loading_layer.svg"
   inkscape:version="0.92.3 (2405546, 2018-03-11)">
  <metadata
     id="metadata14">
    <rdf:RDF>
      <cc:Work
         rdf:about="">
        <dc:format>image/svg+xml</dc:format>
        <dc:type
           rdf:resource="http://purl.org/dc/dcmitype/StillImage" />
        <dc:title></dc:title>
      </cc:Work>
    </rdf:RDF>
  </metadata>
  <defs
     id="defs12" />
  <sodipodi:namedview
     pagecolor="#ffffff"
     bordercolor="#666666"
     borderopacity="1"
     objecttolerance="10"
     gridtolerance="10"
     guidetolerance="10"
     inkscape:pageopacity="0"
     inkscape:pageshadow="2"
     inkscape:window-width="1280"
     inkscape:window-height="1023"
     id="namedview10"
     showgrid="false"
     inkscape:zoom="20.85965"
     inkscape:cx="7.0285361"
     inkscape:cy="11.579314"
     inkscape:window-x="0"
     inkscape:window-y="0"
     inkscape:window-maximized="1"
     inkscape:current-layer="g6" />
  <g
     transform="translate(0,-1036.4)"
     id="g6"
     style="fill:#e0e0e0">
    <path
       d="m 12.674792,1038.6971 -3.96062,-1.2444 c -0.1079167,0.3592 -0.2313456,3.0223 -0.433977,3.3378 l 2.121993,0.8897 c 0.739958,-0.9136 2.05873,-1.8271 2.272604,-2.9831 z"
       id="path2"
       inkscape:connector-curvature="0"
       style="fill-opacity:0.99607999;stroke-width:1.00681698"
       sodipodi:nodetypes="ccccc" />
    <path
       d="m 7.0403697,1037.6733 a 7.0477187,7.0477187 0 0 0 -3.2072158,1.3293 l 2.1729125,2.1729 a 4.0272679,4.0272679 0 0 1 1.0343033,-0.4306 z m -4.6309556,2.7531 A 7.0477187,7.0477187 0 0 0 1.0781,1043.6336 h 3.0755238 a 4.0272679,4.0272679 0 0 1 0.4286825,-1.0343 l -2.1729124,-2.1729 z m 11.2753429,0 -2.172912,2.1729 a 4.0272679,4.0272679 0 0 1 0.430656,1.0343 h 3.071597 a 7.0477187,7.0477187 0 0 0 -1.3293,-3.2072 z m -12.6053482,5.2208 a 7.0477187,7.0477187 0 0 0 1.3293005,3.2072 l 2.1729124,-2.1729 a 4.0272679,4.0272679 0 0 1 -0.4306458,-1.0343 H 1.0793787 Z m 10.8605342,0 a 4.0272679,4.0272679 0 0 1 -0.428682,1.0343 l 2.172912,2.1729 a 7.0477187,7.0477187 0 0 0 1.331314,-3.2072 h -3.075523 z m -5.9346822,2.4581 -2.1729123,2.1729 a 7.0477187,7.0477187 0 0 0 3.2072156,1.3313 v -3.0755 a 4.0272679,4.0272679 0 0 1 -1.0343033,-0.4287 z m 4.0823412,0 a 4.0272679,4.0272679 0 0 1 -1.0343035,0.4307 v 3.0715 a 7.0477187,7.0477187 0 0 0 3.2072155,-1.3293 z"
       id="path4"
       inkscape:connector-curvature="0"
       style="fill-opacity:0.19607999;stroke-width:1.00681698" />
  </g>
</svg>
