<?xml version="1.0" encoding="UTF-8" standalone="no"?>
<!-- Created with Inkscape (http://www.inkscape.org/) -->

<svg
   xmlns:dc="http://purl.org/dc/elements/1.1/"
   xmlns:cc="http://creativecommons.org/ns#"
   xmlns:rdf="http://www.w3.org/1999/02/22-rdf-syntax-ns#"
   xmlns:svg="http://www.w3.org/2000/svg"
   xmlns="http://www.w3.org/2000/svg"
   xmlns:sodipodi="http://sodipodi.sourceforge.net/DTD/sodipodi-0.dtd"
   xmlns:inkscape="http://www.inkscape.org/namespaces/inkscape"
   width="32px"
   height="32px"
   viewBox="0 0 32 32"
   version="1.1"
   id="SVGRoot"
   inkscape:version="0.92.5 (2060ec1f9f, 2020-04-08)"
   sodipodi:docname="uv_islands.svg">
  <defs
     id="defs847" />
  <sodipodi:namedview
     id="base"
     pagecolor="#ffffff"
     bordercolor="#666666"
     borderopacity="1.0"
     inkscape:pageopacity="0.0"
     inkscape:pageshadow="2"
     inkscape:zoom="5.6568543"
     inkscape:cx="-19.266079"
     inkscape:cy="10.284282"
     inkscape:document-units="px"
     inkscape:current-layer="layer1"
     showgrid="false"
     inkscape:window-width="1920"
     inkscape:window-height="1181"
     inkscape:window-x="0"
     inkscape:window-y="0"
     inkscape:window-maximized="1"
     inkscape:grid-bbox="true"
     inkscape:snap-page="true"
     inkscape:snap-global="false" />
  <metadata
     id="metadata850">
    <rdf:RDF>
      <cc:Work
         rdf:about="">
        <dc:format>image/svg+xml</dc:format>
        <dc:type
           rdf:resource="http://purl.org/dc/dcmitype/StillImage" />
        <dc:title />
      </cc:Work>
    </rdf:RDF>
  </metadata>
  <g
     inkscape:label="Layer 1"
     inkscape:groupmode="layer"
     id="layer1">
    <path
       style="fill:#ffffff;fill-opacity:1;stroke:none;stroke-width:2.13470745;stroke-linecap:square;stroke-miterlimit:4.4000001;stroke-dasharray:none;stroke-dashoffset:0.77253538;stroke-opacity:1;paint-order:fill markers stroke"
       d="M -0.18945312 1.7246094 L -0.18945312 31.798828 L 29.976562 31.798828 L -0.18945312 1.7246094 z M 0.84765625 21.091797 L 3.1328125 21.091797 L 3.1328125 26.957031 C 3.1328125 27.765041 3.2508142 28.341997 3.4882812 28.691406 C 3.7297063 29.036448 4.121846 29.208984 4.6640625 29.208984 C 5.2102369 29.208984 5.6023766 29.036448 5.8398438 28.691406 C 6.0812685 28.341997 6.2011719 27.765041 6.2011719 26.957031 L 6.2011719 21.091797 L 8.4882812 21.091797 L 8.4882812 26.957031 C 8.4882812 28.341567 8.1722566 29.371847 7.5429688 30.048828 C 6.9136809 30.725809 5.9543006 31.064453 4.6640625 31.064453 C 3.3777823 31.064453 2.4203034 30.725809 1.7910156 30.048828 C 1.1617278 29.371847 0.84765625 28.341567 0.84765625 26.957031 L 0.84765625 21.091797 z M 9.6640625 21.091797 L 11.960938 21.091797 L 14.3125 28.3125 L 16.65625 21.091797 L 18.953125 21.091797 L 15.671875 30.873047 L 12.945312 30.873047 L 9.6640625 21.091797 z "
       id="path1403" />
    <path
       sodipodi:nodetypes="cccc"
       inkscape:connector-curvature="0"
       id="path1451"
       d="M 31.121111,27.967637 4.1737994,1.0203255 H 31.121111 Z"
       inkscape:transform-center-y="-0.021851681"
       inkscape:transform-center-x="3.7941863"
       style="fill:none;fill-opacity:1;stroke:#ffffff;stroke-width:1.90988564;stroke-linecap:square;stroke-miterlimit:4.4000001;stroke-dasharray:none;stroke-dashoffset:0.77253538;stroke-opacity:1;paint-order:fill markers stroke" />
  </g>
</svg>
